<mxfile modified="2023-05-15T22:22:10.053Z" host="app.diagrams.net" agent="Mozilla/5.0 (Windows NT 10.0; Win64; x64) AppleWebKit/537.36 (KHTML, like Gecko) Chrome/113.0.0.0 Safari/537.36 Edg/113.0.1774.42" etag="4OPQaV_K0Ek-xoBmDwif" version="21.2.9" type="google">
  <diagram id="Ht1M8jgEwFfnCIfOTk4-" name="Page-1">
    <mxGraphModel grid="1" page="1" gridSize="10" guides="1" tooltips="1" connect="1" arrows="1" fold="1" pageScale="1" pageWidth="1169" pageHeight="827" math="0" shadow="0">
      <root>
        <mxCell id="0" />
        <mxCell id="1" parent="0" />
        <mxCell id="UEzPUAAOIrF-is8g5C7q-128" style="edgeStyle=orthogonalEdgeStyle;rounded=1;orthogonalLoop=1;jettySize=auto;html=1;startArrow=open;startFill=0;endArrow=open;endFill=0;strokeWidth=2;strokeColor=#808080;" edge="1" parent="1">
          <mxGeometry relative="1" as="geometry">
            <Array as="points">
              <mxPoint x="310.5" y="461.5" />
              <mxPoint x="310.5" y="376.5" />
            </Array>
            <mxPoint x="260.5" y="461.0666666666666" as="sourcePoint" />
            <mxPoint x="369.5" y="376.55555555555554" as="targetPoint" />
          </mxGeometry>
        </mxCell>
        <mxCell id="UEzPUAAOIrF-is8g5C7q-124" style="edgeStyle=orthogonalEdgeStyle;rounded=1;orthogonalLoop=1;jettySize=auto;html=1;startArrow=open;startFill=0;endArrow=open;endFill=0;strokeWidth=2;strokeColor=#808080;" edge="1" parent="1">
          <mxGeometry relative="1" as="geometry">
            <Array as="points">
              <mxPoint x="300.5" y="235.5" />
              <mxPoint x="300.5" y="95.5" />
            </Array>
            <mxPoint x="260.28492941277955" y="235.5" as="sourcePoint" />
            <mxPoint x="390" y="95" as="targetPoint" />
          </mxGeometry>
        </mxCell>
        <mxCell id="UEzPUAAOIrF-is8g5C7q-127" style="edgeStyle=orthogonalEdgeStyle;rounded=1;orthogonalLoop=1;jettySize=auto;html=1;startArrow=open;startFill=0;endArrow=open;endFill=0;strokeWidth=2;strokeColor=#808080;" edge="1" parent="1">
          <mxGeometry relative="1" as="geometry">
            <Array as="points">
              <mxPoint x="311.5" y="281.5" />
              <mxPoint x="311.5" y="361.5" />
            </Array>
            <mxPoint x="260.28492941277955" y="281.5" as="sourcePoint" />
            <mxPoint x="369.5" y="361.55555555555554" as="targetPoint" />
          </mxGeometry>
        </mxCell>
        <mxCell id="UEzPUAAOIrF-is8g5C7q-125" style="edgeStyle=orthogonalEdgeStyle;rounded=1;orthogonalLoop=1;jettySize=auto;html=1;startArrow=open;startFill=0;endArrow=open;endFill=0;strokeWidth=2;strokeColor=#808080;" edge="1" parent="1">
          <mxGeometry relative="1" as="geometry">
            <Array as="points">
              <mxPoint x="530.5" y="101.5" />
              <mxPoint x="530.5" y="101.5" />
            </Array>
            <mxPoint x="490.5" y="101.47619047619048" as="sourcePoint" />
            <mxPoint x="568.5" y="101.47826086956525" as="targetPoint" />
          </mxGeometry>
        </mxCell>
        <mxCell id="UEzPUAAOIrF-is8g5C7q-126" style="edgeStyle=orthogonalEdgeStyle;rounded=1;orthogonalLoop=1;jettySize=auto;html=1;startArrow=open;startFill=0;endArrow=open;endFill=0;strokeWidth=2;strokeColor=#808080;" edge="1" parent="1">
          <mxGeometry relative="1" as="geometry">
            <mxPoint x="490" y="266" as="sourcePoint" />
            <mxPoint x="259.92999999999995" y="265.52" as="targetPoint" />
            <Array as="points">
              <mxPoint x="489.92999999999995" y="266.02" />
              <mxPoint x="259.92999999999995" y="266.02" />
            </Array>
          </mxGeometry>
        </mxCell>
        <mxCell id="UEzPUAAOIrF-is8g5C7q-129" style="edgeStyle=orthogonalEdgeStyle;rounded=1;orthogonalLoop=1;jettySize=auto;html=1;startArrow=open;startFill=0;endArrow=open;endFill=0;strokeWidth=2;strokeColor=#808080;" edge="1" parent="1">
          <mxGeometry relative="1" as="geometry">
            <Array as="points">
              <mxPoint x="510.5" y="391.5" />
              <mxPoint x="510.5" y="391.5" />
            </Array>
            <mxPoint x="447.5" y="391.55555555555554" as="sourcePoint" />
            <mxPoint x="580.500887149974" y="391.57142857142856" as="targetPoint" />
          </mxGeometry>
        </mxCell>
        <mxCell id="UEzPUAAOIrF-is8g5C7q-130" style="edgeStyle=orthogonalEdgeStyle;rounded=1;orthogonalLoop=1;jettySize=auto;html=1;startArrow=open;startFill=0;endArrow=open;endFill=0;strokeWidth=2;strokeColor=#808080;" edge="1" parent="1">
          <mxGeometry relative="1" as="geometry">
            <Array as="points">
              <mxPoint x="697" y="348" />
              <mxPoint x="697" y="106" />
              <mxPoint x="647" y="106" />
            </Array>
            <mxPoint x="655.4991128500262" y="348.04761904761904" as="sourcePoint" />
            <mxPoint x="647" y="106" as="targetPoint" />
          </mxGeometry>
        </mxCell>
        <mxCell id="uej3u4ymLReIxa_lcygt-38" value="&lt;span style=&quot;color: rgb(153 , 153 , 153) ; font-weight: 700 ; font-size: 12px&quot;&gt;&amp;nbsp;Firebase Admin SDK&amp;nbsp;&lt;/span&gt;" style="edgeLabel;html=1;align=center;verticalAlign=middle;resizable=0;points=[];labelBackgroundColor=default;labelBorderColor=default;rotation=270;rounded=1;padding=2;fontSize=12;" connectable="0" vertex="1" parent="UEzPUAAOIrF-is8g5C7q-130">
          <mxGeometry relative="1" as="geometry">
            <mxPoint y="-13" as="offset" />
          </mxGeometry>
        </mxCell>
        <mxCell id="UEzPUAAOIrF-is8g5C7q-131" style="edgeStyle=orthogonalEdgeStyle;rounded=1;orthogonalLoop=1;jettySize=auto;html=1;startArrow=open;startFill=0;endArrow=open;endFill=0;strokeWidth=2;strokeColor=#808080;" edge="1" parent="1">
          <mxGeometry relative="1" as="geometry">
            <Array as="points">
              <mxPoint x="212" y="160" />
              <mxPoint x="212" y="160" />
            </Array>
            <mxPoint x="212" y="205" as="sourcePoint" />
            <mxPoint x="212" y="155" as="targetPoint" />
          </mxGeometry>
        </mxCell>
        <mxCell id="UEzPUAAOIrF-is8g5C7q-132" style="edgeStyle=orthogonalEdgeStyle;rounded=1;orthogonalLoop=1;jettySize=auto;html=1;startArrow=open;startFill=0;endArrow=open;endFill=0;strokeWidth=2;strokeColor=#808080;endSize=6;" edge="1" parent="1">
          <mxGeometry relative="1" as="geometry">
            <Array as="points">
              <mxPoint x="755.74" y="362" />
            </Array>
            <mxPoint x="655" y="362.04761904761904" as="sourcePoint" />
            <mxPoint x="771.37" y="362" as="targetPoint" />
          </mxGeometry>
        </mxCell>
        <mxCell id="UEzPUAAOIrF-is8g5C7q-139" style="edgeStyle=orthogonalEdgeStyle;rounded=1;orthogonalLoop=1;jettySize=auto;html=1;startArrow=open;startFill=0;endArrow=open;endFill=0;strokeWidth=2;strokeColor=#808080;" edge="1" parent="1">
          <mxGeometry relative="1" as="geometry">
            <mxPoint x="260.28492941277955" y="250.50000000000023" as="sourcePoint" />
            <mxPoint x="390" y="110" as="targetPoint" />
            <Array as="points">
              <mxPoint x="311.5" y="250" />
              <mxPoint x="311.5" y="110" />
            </Array>
          </mxGeometry>
        </mxCell>
        <mxCell id="UEzPUAAOIrF-is8g5C7q-141" style="edgeStyle=orthogonalEdgeStyle;rounded=1;orthogonalLoop=1;jettySize=auto;html=1;startArrow=open;startFill=0;endArrow=open;endFill=0;strokeWidth=2;strokeColor=#808080;" edge="1" parent="1" target="uej3u4ymLReIxa_lcygt-19">
          <mxGeometry relative="1" as="geometry">
            <mxPoint x="530" y="310" as="sourcePoint" />
            <mxPoint x="447.5" y="351.55555555555554" as="targetPoint" />
            <Array as="points">
              <mxPoint x="530" y="352" />
            </Array>
          </mxGeometry>
        </mxCell>
        <mxCell id="UEzPUAAOIrF-is8g5C7q-142" style="edgeStyle=orthogonalEdgeStyle;rounded=1;orthogonalLoop=1;jettySize=auto;html=1;startArrow=open;startFill=0;endArrow=open;endFill=0;strokeWidth=2;strokeColor=#808080;" edge="1" parent="1">
          <mxGeometry relative="1" as="geometry">
            <mxPoint x="447.5" y="371.55555555555554" as="sourcePoint" />
            <mxPoint x="580.500887149974" y="371.57142857142856" as="targetPoint" />
            <Array as="points">
              <mxPoint x="510.5" y="371.5" />
              <mxPoint x="510.5" y="371.5" />
            </Array>
          </mxGeometry>
        </mxCell>
        <mxCell id="UEzPUAAOIrF-is8g5C7q-143" style="edgeStyle=orthogonalEdgeStyle;rounded=1;orthogonalLoop=1;jettySize=auto;html=1;startArrow=open;startFill=0;endArrow=open;endFill=0;strokeWidth=2;strokeColor=#808080;" edge="1" parent="1">
          <mxGeometry relative="1" as="geometry">
            <mxPoint x="490.5" y="121.47619047619048" as="sourcePoint" />
            <mxPoint x="568.5" y="121.47826086956525" as="targetPoint" />
            <Array as="points">
              <mxPoint x="530.5" y="121.5" />
              <mxPoint x="530.5" y="121.5" />
            </Array>
          </mxGeometry>
        </mxCell>
        <mxCell id="uej3u4ymLReIxa_lcygt-6" value="&lt;b&gt;&lt;font style=&quot;font-size: 11px&quot; color=&quot;#8792a1&quot;&gt;End User / Client&lt;/font&gt;&lt;/b&gt;" style="outlineConnect=0;gradientColor=none;fontColor=#545B64;strokeColor=none;fillColor=#879196;dashed=0;verticalLabelPosition=bottom;verticalAlign=top;align=center;html=1;fontSize=12;fontStyle=0;aspect=fixed;shape=mxgraph.aws4.illustration_devices;pointerEvents=1;rounded=1;" vertex="1" parent="1">
          <mxGeometry x="160" y="219.5" width="84.25" height="61.5" as="geometry" />
        </mxCell>
        <mxCell id="uej3u4ymLReIxa_lcygt-8" value="&lt;b&gt;&lt;font color=&quot;#8792a1&quot;&gt;Admin User&lt;/font&gt;&lt;/b&gt;" style="outlineConnect=0;gradientColor=none;fontColor=#545B64;strokeColor=none;fillColor=#879196;dashed=0;verticalLabelPosition=bottom;verticalAlign=top;align=center;html=1;fontSize=12;fontStyle=0;aspect=fixed;shape=mxgraph.aws4.illustration_desktop;pointerEvents=1;rounded=1;" vertex="1" parent="1">
          <mxGeometry x="187" y="431.5" width="65.93" height="60" as="geometry" />
        </mxCell>
        <mxCell id="uej3u4ymLReIxa_lcygt-9" value="Logging" style="html=1;fillColor=#5184F3;strokeColor=none;verticalAlign=top;labelPosition=center;verticalLabelPosition=bottom;align=center;spacingTop=-6;fontSize=11;fontStyle=1;fontColor=#999999;shape=mxgraph.gcp2.hexIcon;prIcon=logging;rounded=1;" vertex="1" parent="1">
          <mxGeometry x="380" y="470" width="77.56" height="68.75" as="geometry" />
        </mxCell>
        <mxCell id="uej3u4ymLReIxa_lcygt-15" value="Firebase &lt;br&gt;Authentication" style="html=1;fillColor=#5184F3;strokeColor=none;verticalAlign=top;labelPosition=center;verticalLabelPosition=bottom;align=center;spacingTop=-6;fontSize=11;fontStyle=1;fontColor=#999999;shape=mxgraph.gcp2.hexIcon;prIcon=cloud_iam;rounded=1;" vertex="1" parent="1">
          <mxGeometry x="400" y="77.82" width="80" height="63.43" as="geometry" />
        </mxCell>
        <mxCell id="uej3u4ymLReIxa_lcygt-16" value="Cloud&#xa;Firestore" style="html=1;fillColor=#5184F3;strokeColor=none;verticalAlign=top;labelPosition=center;verticalLabelPosition=bottom;align=center;spacingTop=-6;fontSize=11;fontStyle=1;fontColor=#999999;shape=mxgraph.gcp2.hexIcon;prIcon=cloud_firestore;rounded=1;" vertex="1" parent="1">
          <mxGeometry x="568.5" y="73.43999999999998" width="81.43" height="72.18" as="geometry" />
        </mxCell>
        <mxCell id="uej3u4ymLReIxa_lcygt-19" value="API Endpoints" style="html=1;fillColor=#5184F3;strokeColor=none;verticalAlign=top;labelPosition=center;verticalLabelPosition=bottom;align=center;spacingTop=-6;fontSize=11;fontStyle=1;fontColor=#999999;shape=mxgraph.gcp2.hexIcon;prIcon=cloud_endpoints;rounded=1;" vertex="1" parent="1">
          <mxGeometry x="368.59000000000003" y="338" width="78.97" height="70" as="geometry" />
        </mxCell>
        <mxCell id="uej3u4ymLReIxa_lcygt-22" value="Edge Functions" style="html=1;fillColor=#5184F3;strokeColor=none;verticalAlign=top;labelPosition=center;verticalLabelPosition=bottom;align=center;spacingTop=-6;fontSize=11;fontStyle=1;fontColor=#999999;shape=mxgraph.gcp2.hexIcon;prIcon=cloud_functions;rounded=1;" vertex="1" parent="1">
          <mxGeometry x="182.01000000000005" y="71.25" width="78.97" height="70" as="geometry" />
        </mxCell>
        <mxCell id="uej3u4ymLReIxa_lcygt-24" value="Backend &lt;br&gt;Infrastructure" style="html=1;fillColor=#5184F3;strokeColor=none;verticalAlign=top;labelPosition=center;verticalLabelPosition=bottom;align=center;spacingTop=-6;fontSize=11;fontStyle=1;fontColor=#999999;shape=mxgraph.gcp2.hexIcon;prIcon=app_engine;rounded=1;" vertex="1" parent="1">
          <mxGeometry x="580" y="331" width="78.97" height="70" as="geometry" />
        </mxCell>
        <mxCell id="uej3u4ymLReIxa_lcygt-28" style="edgeStyle=orthogonalEdgeStyle;rounded=1;orthogonalLoop=1;jettySize=auto;html=1;startArrow=open;startFill=0;endArrow=open;endFill=0;strokeWidth=2;strokeColor=#808080;" edge="1" parent="1">
          <mxGeometry relative="1" as="geometry">
            <Array as="points">
              <mxPoint x="408.98" y="461.44" />
              <mxPoint x="408.98" y="461.44" />
            </Array>
            <mxPoint x="409" y="431.5" as="sourcePoint" />
            <mxPoint x="409" y="470" as="targetPoint" />
          </mxGeometry>
        </mxCell>
        <mxCell id="uej3u4ymLReIxa_lcygt-29" value="Cloud&#xa;Storage" style="html=1;fillColor=#5184F3;strokeColor=none;verticalAlign=top;labelPosition=center;verticalLabelPosition=bottom;align=center;spacingTop=-6;fontSize=11;fontStyle=1;fontColor=#999999;shape=mxgraph.gcp2.hexIcon;prIcon=cloud_storage;rounded=1;" vertex="1" parent="1">
          <mxGeometry x="482.76" y="202" width="85.74" height="76" as="geometry" />
        </mxCell>
        <mxCell id="uej3u4ymLReIxa_lcygt-31" value="Recommendations&lt;br&gt;Engine" style="html=1;fillColor=#5184F3;strokeColor=none;verticalAlign=top;labelPosition=center;verticalLabelPosition=bottom;align=center;spacingTop=-6;fontSize=11;fontStyle=1;fontColor=#999999;shape=mxgraph.gcp2.hexIcon;prIcon=recommendations_ai;rounded=1;" vertex="1" parent="1">
          <mxGeometry x="766.37" y="330" width="85.74" height="76" as="geometry" />
        </mxCell>
        <mxCell id="uej3u4ymLReIxa_lcygt-32" style="edgeStyle=orthogonalEdgeStyle;rounded=1;orthogonalLoop=1;jettySize=auto;html=1;startArrow=open;startFill=0;endArrow=open;endFill=0;strokeWidth=2;strokeColor=#808080;endSize=6;" edge="1" parent="1">
          <mxGeometry relative="1" as="geometry">
            <Array as="points">
              <mxPoint x="755.74" y="377.71" />
            </Array>
            <mxPoint x="655" y="377.757619047619" as="sourcePoint" />
            <mxPoint x="771.3700000000001" y="377.71" as="targetPoint" />
          </mxGeometry>
        </mxCell>
        <mxCell id="uej3u4ymLReIxa_lcygt-35" value="Pickled Model" style="html=1;fillColor=#5184F3;strokeColor=none;verticalAlign=top;labelPosition=center;verticalLabelPosition=bottom;align=center;spacingTop=-6;fontSize=11;fontStyle=1;fontColor=#999999;shape=mxgraph.gcp2.hexIcon;prIcon=cloud_machine_learning;rounded=1;" vertex="1" parent="1">
          <mxGeometry x="759.6" y="470" width="92.51" height="82" as="geometry" />
        </mxCell>
        <mxCell id="uej3u4ymLReIxa_lcygt-43" value="" style="shape=image;html=1;verticalAlign=top;verticalLabelPosition=bottom;labelBackgroundColor=#ffffff;imageAspect=0;aspect=fixed;image=https://cdn1.iconfinder.com/data/icons/unicons-line-vol-5/24/react-128.png;rounded=1;labelBorderColor=default;fontSize=12;fillColor=#7D7D7D;" vertex="1" parent="1">
          <mxGeometry x="173.96" y="245" width="29" height="29" as="geometry" />
        </mxCell>
        <mxCell id="uej3u4ymLReIxa_lcygt-44" value="" style="shape=image;html=1;verticalAlign=top;verticalLabelPosition=bottom;labelBackgroundColor=#ffffff;imageAspect=0;aspect=fixed;image=https://cdn1.iconfinder.com/data/icons/ionicons-fill-vol-2/512/logo-react-128.png;rounded=1;labelBorderColor=default;fontSize=12;fillColor=#7D7D7D;" vertex="1" parent="1">
          <mxGeometry x="202.75" y="432.5" width="37.5" height="37.5" as="geometry" />
        </mxCell>
        <mxCell id="uej3u4ymLReIxa_lcygt-46" style="edgeStyle=orthogonalEdgeStyle;rounded=1;orthogonalLoop=1;jettySize=auto;html=1;startArrow=open;startFill=0;endArrow=open;endFill=0;strokeWidth=2;strokeColor=#808080;" edge="1" parent="1">
          <mxGeometry relative="1" as="geometry">
            <mxPoint x="565" y="252" as="sourcePoint" />
            <mxPoint x="605" y="180" as="targetPoint" />
            <Array as="points">
              <mxPoint x="605" y="252" />
            </Array>
          </mxGeometry>
        </mxCell>
        <mxCell id="uej3u4ymLReIxa_lcygt-47" value="" style="shape=image;html=1;verticalAlign=top;verticalLabelPosition=bottom;labelBackgroundColor=#ffffff;imageAspect=0;aspect=fixed;image=https://cdn1.iconfinder.com/data/icons/unicons-line-vol-5/24/react-128.png;rounded=1;labelBorderColor=default;fontSize=12;fillColor=#7D7D7D;" vertex="1" parent="1">
          <mxGeometry x="212" y="230" width="15" height="15" as="geometry" />
        </mxCell>
        <mxCell id="uej3u4ymLReIxa_lcygt-48" value="" style="shape=image;html=1;verticalAlign=top;verticalLabelPosition=bottom;labelBackgroundColor=#ffffff;imageAspect=0;aspect=fixed;image=https://cdn1.iconfinder.com/data/icons/unicons-line-vol-5/24/react-128.png;rounded=1;labelBorderColor=default;fontSize=12;fillColor=#7D7D7D;" vertex="1" parent="1">
          <mxGeometry x="228.25" y="257" width="15" height="15" as="geometry" />
        </mxCell>
        <mxCell id="uej3u4ymLReIxa_lcygt-50" style="edgeStyle=orthogonalEdgeStyle;rounded=1;orthogonalLoop=1;jettySize=auto;html=1;startArrow=open;startFill=0;endArrow=open;endFill=0;strokeWidth=2;strokeColor=#808080;" edge="1" parent="1">
          <mxGeometry relative="1" as="geometry">
            <Array as="points">
              <mxPoint x="227" y="160" />
              <mxPoint x="227" y="160" />
            </Array>
            <mxPoint x="227" y="205.0000000000001" as="sourcePoint" />
            <mxPoint x="227" y="155" as="targetPoint" />
          </mxGeometry>
        </mxCell>
        <mxCell id="uej3u4ymLReIxa_lcygt-52" style="edgeStyle=orthogonalEdgeStyle;rounded=1;orthogonalLoop=1;jettySize=auto;html=1;startArrow=open;startFill=0;endArrow=open;endFill=0;strokeWidth=2;strokeColor=#808080;" edge="1" parent="1">
          <mxGeometry relative="1" as="geometry">
            <Array as="points">
              <mxPoint x="422.98" y="460.44" />
              <mxPoint x="422.98" y="460.44" />
            </Array>
            <mxPoint x="423" y="430.5" as="sourcePoint" />
            <mxPoint x="423" y="469" as="targetPoint" />
          </mxGeometry>
        </mxCell>
        <mxCell id="uej3u4ymLReIxa_lcygt-57" style="edgeStyle=orthogonalEdgeStyle;rounded=1;orthogonalLoop=1;jettySize=auto;html=1;startArrow=open;startFill=0;endArrow=open;endFill=0;strokeWidth=2;strokeColor=#808080;" edge="1" parent="1">
          <mxGeometry relative="1" as="geometry">
            <Array as="points">
              <mxPoint x="801.98" y="467.44" />
              <mxPoint x="801.98" y="467.44" />
            </Array>
            <mxPoint x="802" y="437.5" as="sourcePoint" />
            <mxPoint x="802" y="476" as="targetPoint" />
          </mxGeometry>
        </mxCell>
        <mxCell id="uej3u4ymLReIxa_lcygt-58" style="edgeStyle=orthogonalEdgeStyle;rounded=1;orthogonalLoop=1;jettySize=auto;html=1;startArrow=open;startFill=0;endArrow=open;endFill=0;strokeWidth=2;strokeColor=#808080;" edge="1" parent="1">
          <mxGeometry relative="1" as="geometry">
            <Array as="points">
              <mxPoint x="815.98" y="466.44" />
              <mxPoint x="815.98" y="466.44" />
            </Array>
            <mxPoint x="816" y="436.5" as="sourcePoint" />
            <mxPoint x="816" y="475" as="targetPoint" />
          </mxGeometry>
        </mxCell>
      </root>
    </mxGraphModel>
  </diagram>
</mxfile>
